<svg width="119" height="20" viewBox="0 0 119 20" fill="none" xmlns="http://www.w3.org/2000/svg">
<path d="M17.2344 14.1953C17.2344 14.8906 17.1016 15.5469 16.8359 16.1641C16.5781 16.7734 16.2188 17.3086 15.7578 17.7695C15.3047 18.2227 14.7695 18.582 14.1523 18.8477C13.543 19.1055 12.8906 19.2344 12.1953 19.2344C11.5703 19.2344 10.9688 19.125 10.3906 18.9062C9.82031 18.6875 9.30469 18.3672 8.84375 17.9453C8.38281 18.3672 7.86328 18.6875 7.28516 18.9062C6.70703 19.125 6.10547 19.2344 5.48047 19.2344C4.78516 19.2344 4.12891 19.1055 3.51172 18.8477C2.90234 18.582 2.36719 18.2227 1.90625 17.7695C1.45312 17.3086 1.09375 16.7734 0.828125 16.1641C0.570312 15.5469 0.441406 14.8906 0.441406 14.1953V2.19531H3.80469V14.1953C3.80469 14.4297 3.84766 14.6523 3.93359 14.8633C4.01953 15.0664 4.13672 15.2461 4.28516 15.4023C4.44141 15.5508 4.62109 15.668 4.82422 15.7539C5.02734 15.8398 5.24609 15.8828 5.48047 15.8828C5.71484 15.8828 5.93359 15.8398 6.13672 15.7539C6.33984 15.668 6.51562 15.5508 6.66406 15.4023C6.82031 15.2461 6.94141 15.0664 7.02734 14.8633C7.11328 14.6523 7.15625 14.4297 7.15625 14.1953V2.19531H10.5195V14.1953C10.5195 14.4297 10.5625 14.6523 10.6484 14.8633C10.7344 15.0664 10.8516 15.2461 11 15.4023C11.1562 15.5508 11.3359 15.668 11.5391 15.7539C11.7422 15.8398 11.9609 15.8828 12.1953 15.8828C12.4297 15.8828 12.6484 15.8398 12.8516 15.7539C13.0547 15.668 13.2305 15.5508 13.3789 15.4023C13.5352 15.2461 13.6562 15.0664 13.7422 14.8633C13.8359 14.6523 13.8828 14.4297 13.8828 14.1953V2.19531H17.2344V14.1953ZM22.9883 19H19.7891V1.45703H22.9883V7C23.3711 6.71094 23.7656 6.50781 24.1719 6.39062C24.5781 6.26562 24.9922 6.20312 25.4141 6.20312C26.1875 6.20312 26.9141 6.35156 27.5938 6.64844C28.2734 6.9375 28.8633 7.33984 29.3633 7.85547C29.8711 8.36328 30.2695 8.96094 30.5586 9.64844C30.8555 10.3281 31.0039 11.0547 31.0039 11.8281V19H27.7812V11.8281H27.8047C27.8047 11.5 27.7422 11.1914 27.6172 10.9023C27.4922 10.6055 27.3203 10.3477 27.1016 10.1289C26.8828 9.91016 26.6289 9.73828 26.3398 9.61328C26.0508 9.48828 25.7422 9.42578 25.4141 9.42578C25.0781 9.42578 24.7617 9.48828 24.4648 9.61328C24.168 9.73828 23.9102 9.91016 23.6914 10.1289C23.4727 10.3477 23.3008 10.6055 23.1758 10.9023C23.0508 11.1914 22.9883 11.5 22.9883 11.8281V19ZM38.2812 15.9297C38.4062 15.9688 38.5312 15.9961 38.6562 16.0117C38.7812 16.0195 38.9062 16.0234 39.0312 16.0234C39.3438 16.0234 39.6445 15.9805 39.9336 15.8945C40.2227 15.8086 40.4922 15.6875 40.7422 15.5312C41 15.3672 41.2266 15.1719 41.4219 14.9453C41.625 14.7109 41.7891 14.4531 41.9141 14.1719L44.2578 16.5273C43.9609 16.9492 43.6172 17.3281 43.2266 17.6641C42.8438 18 42.4258 18.2852 41.9727 18.5195C41.5273 18.7539 41.0547 18.9297 40.5547 19.0469C40.0625 19.1719 39.5547 19.2344 39.0312 19.2344C38.1484 19.2344 37.3164 19.0703 36.5352 18.7422C35.7617 18.4141 35.082 17.957 34.4961 17.3711C33.918 16.7852 33.4609 16.0898 33.125 15.2852C32.7891 14.4727 32.6211 13.582 32.6211 12.6133C32.6211 11.6211 32.7891 10.7148 33.125 9.89453C33.4609 9.07422 33.918 8.375 34.4961 7.79688C35.082 7.21875 35.7617 6.76953 36.5352 6.44922C37.3164 6.12891 38.1484 5.96875 39.0312 5.96875C39.5547 5.96875 40.0664 6.03125 40.5664 6.15625C41.0664 6.28125 41.5391 6.46094 41.9844 6.69531C42.4375 6.92969 42.8594 7.21875 43.25 7.5625C43.6406 7.89844 43.9844 8.27734 44.2812 8.69922L38.2812 15.9297ZM39.9219 9.33203C39.7734 9.27734 39.625 9.24219 39.4766 9.22656C39.3359 9.21094 39.1875 9.20312 39.0312 9.20312C38.5938 9.20312 38.1797 9.28516 37.7891 9.44922C37.4062 9.60547 37.0703 9.83203 36.7812 10.1289C36.5 10.4258 36.2773 10.7852 36.1133 11.207C35.9492 11.6211 35.8672 12.0898 35.8672 12.6133C35.8672 12.7305 35.8711 12.8633 35.8789 13.0117C35.8945 13.1602 35.9141 13.3125 35.9375 13.4688C35.9688 13.6172 36.0039 13.7617 36.043 13.9023C36.082 14.043 36.1328 14.168 36.1953 14.2773L39.9219 9.33203ZM50.7969 15.9297C50.9219 15.9688 51.0469 15.9961 51.1719 16.0117C51.2969 16.0195 51.4219 16.0234 51.5469 16.0234C51.8594 16.0234 52.1602 15.9805 52.4492 15.8945C52.7383 15.8086 53.0078 15.6875 53.2578 15.5312C53.5156 15.3672 53.7422 15.1719 53.9375 14.9453C54.1406 14.7109 54.3047 14.4531 54.4297 14.1719L56.7734 16.5273C56.4766 16.9492 56.1328 17.3281 55.7422 17.6641C55.3594 18 54.9414 18.2852 54.4883 18.5195C54.043 18.7539 53.5703 18.9297 53.0703 19.0469C52.5781 19.1719 52.0703 19.2344 51.5469 19.2344C50.6641 19.2344 49.832 19.0703 49.0508 18.7422C48.2773 18.4141 47.5977 17.957 47.0117 17.3711C46.4336 16.7852 45.9766 16.0898 45.6406 15.2852C45.3047 14.4727 45.1367 13.582 45.1367 12.6133C45.1367 11.6211 45.3047 10.7148 45.6406 9.89453C45.9766 9.07422 46.4336 8.375 47.0117 7.79688C47.5977 7.21875 48.2773 6.76953 49.0508 6.44922C49.832 6.12891 50.6641 5.96875 51.5469 5.96875C52.0703 5.96875 52.582 6.03125 53.082 6.15625C53.582 6.28125 54.0547 6.46094 54.5 6.69531C54.9531 6.92969 55.375 7.21875 55.7656 7.5625C56.1562 7.89844 56.5 8.27734 56.7969 8.69922L50.7969 15.9297ZM52.4375 9.33203C52.2891 9.27734 52.1406 9.24219 51.9922 9.22656C51.8516 9.21094 51.7031 9.20312 51.5469 9.20312C51.1094 9.20312 50.6953 9.28516 50.3047 9.44922C49.9219 9.60547 49.5859 9.83203 49.2969 10.1289C49.0156 10.4258 48.793 10.7852 48.6289 11.207C48.4648 11.6211 48.3828 12.0898 48.3828 12.6133C48.3828 12.7305 48.3867 12.8633 48.3945 13.0117C48.4102 13.1602 48.4297 13.3125 48.4531 13.4688C48.4844 13.6172 48.5195 13.7617 48.5586 13.9023C48.5977 14.043 48.6484 14.168 48.7109 14.2773L52.4375 9.33203ZM61.6367 19H58.4141V1.45703H61.6367V19Z" fill="#FF0000"/>
<path d="M77.8906 10.5977C77.8906 11.3711 77.7891 12.1172 77.5859 12.8359C77.3906 13.5469 77.1094 14.2148 76.7422 14.8398C76.375 15.457 75.9375 16.0234 75.4297 16.5391C74.9219 17.0469 74.3555 17.4844 73.7305 17.8516C73.1055 18.2188 72.4336 18.5039 71.7148 18.707C71.0039 18.9023 70.2617 19 69.4883 19H64.4258V2.19531H69.4883C70.2617 2.19531 71.0039 2.29688 71.7148 2.5C72.4336 2.69531 73.1055 2.97656 73.7305 3.34375C74.3555 3.71094 74.9219 4.15234 75.4297 4.66797C75.9375 5.17578 76.375 5.74219 76.7422 6.36719C77.1094 6.98438 77.3906 7.65234 77.5859 8.37109C77.7891 9.08203 77.8906 9.82422 77.8906 10.5977ZM74.5273 10.5977C74.5273 9.90234 74.3945 9.25 74.1289 8.64062C73.8711 8.03125 73.5117 7.5 73.0508 7.04688C72.5977 6.58594 72.0625 6.22266 71.4453 5.95703C70.8359 5.69141 70.1836 5.55859 69.4883 5.55859H67.8125V15.6367H69.4883C70.1836 15.6367 70.8359 15.5078 71.4453 15.25C72.0625 14.9844 72.5977 14.625 73.0508 14.1719C73.5117 13.7109 73.8711 13.1758 74.1289 12.5664C74.3945 11.9492 74.5273 11.293 74.5273 10.5977ZM82.9883 19H79.7891V6.44922H80.5625L81.6172 7.9375C82.1328 7.46875 82.7188 7.10938 83.375 6.85938C84.0312 6.60156 84.7109 6.47266 85.4141 6.47266H88.2383V9.66016H85.4141C85.0781 9.66016 84.7617 9.72266 84.4648 9.84766C84.168 9.97266 83.9102 10.1445 83.6914 10.3633C83.4727 10.582 83.3008 10.8398 83.1758 11.1367C83.0508 11.4336 82.9883 11.75 82.9883 12.0859V19ZM93.5 3.03906C93.5 3.33594 93.4414 3.61328 93.3242 3.87109C93.2148 4.12891 93.0625 4.35547 92.8672 4.55078C92.6719 4.73828 92.4414 4.89062 92.1758 5.00781C91.918 5.11719 91.6406 5.17188 91.3438 5.17188C91.0469 5.17188 90.7656 5.11719 90.5 5.00781C90.2422 4.89062 90.0156 4.73828 89.8203 4.55078C89.6328 4.35547 89.4805 4.12891 89.3633 3.87109C89.2539 3.61328 89.1992 3.33594 89.1992 3.03906C89.1992 2.75 89.2539 2.47656 89.3633 2.21875C89.4805 1.95312 89.6328 1.72656 89.8203 1.53906C90.0156 1.34375 90.2422 1.19141 90.5 1.08203C90.7656 0.964844 91.0469 0.90625 91.3438 0.90625C91.6406 0.90625 91.918 0.964844 92.1758 1.08203C92.4414 1.19141 92.6719 1.34375 92.8672 1.53906C93.0625 1.72656 93.2148 1.95312 93.3242 2.21875C93.4414 2.47656 93.5 2.75 93.5 3.03906ZM92.9492 19H89.7266V6.44922H92.9492V19ZM98.9609 19L94.1797 6.44922H97.8242L100.566 14.2773L103.297 6.44922H106.953L102.172 19H98.9609ZM112.789 15.9297C112.914 15.9688 113.039 15.9961 113.164 16.0117C113.289 16.0195 113.414 16.0234 113.539 16.0234C113.852 16.0234 114.152 15.9805 114.441 15.8945C114.73 15.8086 115 15.6875 115.25 15.5312C115.508 15.3672 115.734 15.1719 115.93 14.9453C116.133 14.7109 116.297 14.4531 116.422 14.1719L118.766 16.5273C118.469 16.9492 118.125 17.3281 117.734 17.6641C117.352 18 116.934 18.2852 116.48 18.5195C116.035 18.7539 115.562 18.9297 115.062 19.0469C114.57 19.1719 114.062 19.2344 113.539 19.2344C112.656 19.2344 111.824 19.0703 111.043 18.7422C110.27 18.4141 109.59 17.957 109.004 17.3711C108.426 16.7852 107.969 16.0898 107.633 15.2852C107.297 14.4727 107.129 13.582 107.129 12.6133C107.129 11.6211 107.297 10.7148 107.633 9.89453C107.969 9.07422 108.426 8.375 109.004 7.79688C109.59 7.21875 110.27 6.76953 111.043 6.44922C111.824 6.12891 112.656 5.96875 113.539 5.96875C114.062 5.96875 114.574 6.03125 115.074 6.15625C115.574 6.28125 116.047 6.46094 116.492 6.69531C116.945 6.92969 117.367 7.21875 117.758 7.5625C118.148 7.89844 118.492 8.27734 118.789 8.69922L112.789 15.9297ZM114.43 9.33203C114.281 9.27734 114.133 9.24219 113.984 9.22656C113.844 9.21094 113.695 9.20312 113.539 9.20312C113.102 9.20312 112.688 9.28516 112.297 9.44922C111.914 9.60547 111.578 9.83203 111.289 10.1289C111.008 10.4258 110.785 10.7852 110.621 11.207C110.457 11.6211 110.375 12.0898 110.375 12.6133C110.375 12.7305 110.379 12.8633 110.387 13.0117C110.402 13.1602 110.422 13.3125 110.445 13.4688C110.477 13.6172 110.512 13.7617 110.551 13.9023C110.59 14.043 110.641 14.168 110.703 14.2773L114.43 9.33203Z" fill="#DEDEDE"/>
</svg>
